<?xml version="1.0" standalone="no"?><!DOCTYPE svg PUBLIC "-//W3C//DTD SVG 1.1//EN" "http://www.w3.org/Graphics/SVG/1.1/DTD/svg11.dtd"><svg t="1567133383514" class="icon" viewBox="0 0 1024 1024" version="1.1" xmlns="http://www.w3.org/2000/svg" p-id="16195" xmlns:xlink="http://www.w3.org/1999/xlink" width="200" height="200"><defs><style type="text/css"></style></defs><path d="M512 850.66752a33.28 33.28 0 1 1 0-66.00704v-0.34304c103.24992 9.44128 194.60608-66.6112 204.04736-169.86624l0.00512-0.0512H716.8a34.1248 34.1248 0 0 1 34.12992-34.12992 34.12992 34.12992 0 0 1 34.14016 34.12992c0.03072 131.95776-106.91584 238.96064-238.8736 238.99648A238.09536 238.09536 0 0 1 512 850.944v-0.27648zM512 1024C229.23776 1024 0 794.76224 0 512S229.23776 0 512 0s512 229.23776 512 512-229.23776 512-512 512z m0-68.27008c245.07904 0 443.72992-198.65088 443.72992-443.72992S757.07904 68.26496 512 68.26496 68.26496 266.92096 68.26496 512c0 245.07904 198.656 443.72992 443.73504 443.72992zM288.7424 446.63808c-31.58528 0.01536-57.19552-25.57952-57.21088-57.1648-0.01024-31.58528 25.58464-57.19552 57.1648-57.21088h0.04608c31.58528 0.01536 57.18016 25.6256 57.1648 57.21088-0.01024 31.56992-25.59488 57.15456-57.1648 57.1648zM614.4 392.53504A34.13504 34.13504 0 0 1 648.192 358.4h137.216c18.6368 0 33.792 15.1552 33.792 34.13504a34.13504 34.13504 0 0 1-33.792 34.13504h-137.216a33.8944 33.8944 0 0 1-33.792-33.9968v-0.13824z" p-id="16196"></path></svg>