<?xml version="1.0" standalone="no"?><!DOCTYPE svg PUBLIC "-//W3C//DTD SVG 1.1//EN" "http://www.w3.org/Graphics/SVG/1.1/DTD/svg11.dtd"><svg t="1567133158972" class="icon" viewBox="0 0 1025 1024" version="1.1" xmlns="http://www.w3.org/2000/svg" p-id="3884" xmlns:xlink="http://www.w3.org/1999/xlink" width="200.1953125" height="200"><defs><style type="text/css"></style></defs><path d="M792.6611 63.322c91.83 0 166.757 75.053 166.757 166.756v563.213c0 91.83-75.053 166.756-166.757 166.756H229.4491c-91.83 0-166.757-75.053-166.757-166.756V230.078c0-91.83 75.053-166.756 166.757-166.756H792.6611m0-62.691H229.4491C102.3001 0.63 0.0011 102.804 0.0011 230.078v563.213a228.742 228.742 0 0 0 229.448 229.448H792.6611a228.742 228.742 0 0 0 229.448-229.448V230.078A228.742 228.742 0 0 0 792.6611 0.631z m0 0" p-id="3885"></path><path d="M797.2021 290.247c-26.867-26.994-63.448-42.13-101.542-42.13h-0.126c-38.094-0.127-74.549 15.01-101.416 41.878L329.3511 554.887c-24.597 24.724-31.913 61.809-18.542 94.1 13.37 32.166 44.905 53.231 79.846 53.105 22.074 0 44.023-8.325 60.8-25.102L716.2211 412.224c11.226-11.227 11.226-29.39 0-40.743-11.227-11.227-29.39-11.227-40.743 0L410.7111 636.247c-5.424 5.298-12.614 8.326-20.308 8.326s-14.885-3.028-20.183-8.452c-5.55-5.298-8.577-12.614-8.577-20.182s3.027-14.885 8.451-20.309L634.8611 330.864c16.146-16.146 37.968-25.228 60.799-25.228h0.126c22.958 0 44.906 9.082 61.052 25.354 16.272 16.272 25.228 37.968 25.228 60.925 0.126 22.831-8.956 44.78-25.102 60.926L486.6471 723.03c-56.258 56.132-147.205 56.132-203.59 0.126-26.993-26.993-42.13-63.574-42.004-101.668 0-38.472 15.011-74.675 42.131-101.794L553.1221 249.63c11.227-11.226 11.227-29.39 0-40.743-11.226-11.226-29.39-11.226-40.743 0L242.4411 478.825c-37.968 37.716-59.16 89.055-59.033 142.538 0 53.735 20.939 104.443 58.907 142.411 37.716 37.716 88.928 58.907 142.285 58.907 53.483 0.127 104.696-21.191 142.538-59.033l280.03-279.903c2.774-2.901 4.919-6.181 6.306-9.965 16.65-23.84 25.733-52.096 25.733-81.865 0.252-38.22-14.885-74.674-42.005-101.668z m0 0" p-id="3886"></path></svg>