<?xml version="1.0" standalone="no"?><!DOCTYPE svg PUBLIC "-//W3C//DTD SVG 1.1//EN" "http://www.w3.org/Graphics/SVG/1.1/DTD/svg11.dtd"><svg t="1567133675266" class="icon" viewBox="0 0 1024 1024" version="1.1" xmlns="http://www.w3.org/2000/svg" p-id="29330" xmlns:xlink="http://www.w3.org/1999/xlink" width="200" height="200"><defs><style type="text/css"></style></defs><path d="M311.893333 340.266667m-105.6 0a105.6 105.6 0 1 0 211.2 0 105.6 105.6 0 1 0-211.2 0Z" fill="#2c2c2c" p-id="29331"></path><path d="M853.333333 981.333333H170.666667a128 128 0 0 1-128-128V170.666667a128 128 0 0 1 128-128h682.666666a128 128 0 0 1 128 128v682.666666a128 128 0 0 1-128 128zM170.666667 128a42.666667 42.666667 0 0 0-42.666667 42.666667v682.666666a42.666667 42.666667 0 0 0 42.666667 42.666667h682.666666a42.666667 42.666667 0 0 0 42.666667-42.666667V170.666667a42.666667 42.666667 0 0 0-42.666667-42.666667z" fill="#2c2c2c" p-id="29332"></path><path d="M140.373333 943.786667l-60.16-60.16L558.506667 405.333333a87.04 87.04 0 0 1 120.32 0l289.92 289.92-60.16 60.16L618.666667 465.493333z" fill="#2c2c2c" p-id="29333"></path></svg>